<svg width="32" height="32" viewBox="0 0 32 32" fill="none" xmlns="http://www.w3.org/2000/svg">
<path d="M22.4621 18.8721V13.1285C22.4619 12.8767 22.3954 12.6294 22.2694 12.4114C22.1434 12.1934 21.9623 12.0123 21.7442 11.8864L16.7185 9.01464C16.5003 8.88861 16.2527 8.82227 16.0006 8.82227C15.7485 8.82227 15.5009 8.88861 15.2827 9.01464L10.257 11.8864C10.0389 12.0123 9.85782 12.1934 9.7318 12.4114C9.60579 12.6294 9.53932 12.8767 9.53906 13.1285V18.8721C9.53932 19.1239 9.60579 19.3712 9.7318 19.5892C9.85782 19.8072 10.0389 19.9882 10.257 20.1141L15.2827 22.9859C15.5009 23.1119 15.7485 23.1783 16.0006 23.1783C16.2527 23.1783 16.5003 23.1119 16.7185 22.9859L21.7442 20.1141C21.9623 19.9882 22.1434 19.8072 22.2694 19.5892C22.3954 19.3712 22.4619 19.1239 22.4621 18.8721Z" stroke="#36E993" stroke-linecap="round" stroke-linejoin="round"/>
<path d="M9.72656 12.3828L15.9943 16.0085L22.2619 12.3828" stroke="#36E993" stroke-linecap="round" stroke-linejoin="round"/>
<path d="M16 23.2369V16" stroke="#36E993" stroke-linecap="round" stroke-linejoin="round"/>
<circle opacity="0.4" cx="16" cy="16" r="16" fill="#5EBE90"/>
</svg>
